<svg width="20" height="20" viewBox="0 0 20 20" fill="none" xmlns="http://www.w3.org/2000/svg">
<g clip-path="url(#clip0_729_723)">
<path d="M3.88845 3.33328H12.7773V8.77772H13.8885V3.33328C13.8885 3.03859 13.7714 2.75598 13.563 2.5476C13.3546 2.33923 13.072 2.22217 12.7773 2.22217H3.88845C3.59377 2.22217 3.31115 2.33923 3.10278 2.5476C2.89441 2.75598 2.77734 3.03859 2.77734 3.33328V16.6666C2.77734 16.9613 2.89441 17.2439 3.10278 17.4523C3.31115 17.6607 3.59377 17.7777 3.88845 17.7777H12.7773C13.072 17.7777 13.3546 17.6607 13.563 17.4523C13.7714 17.2439 13.8885 16.9613 13.8885 16.6666H3.88845V3.33328Z" fill="#FC5959"/>
<path d="M15.6446 9.5999C15.5383 9.50888 15.4016 9.46132 15.2618 9.46672C15.122 9.47212 14.9893 9.53009 14.8904 9.62903C14.7915 9.72797 14.7335 9.8606 14.7281 10.0004C14.7227 10.1402 14.7702 10.277 14.8613 10.3832L16.739 12.2221H8.68349C8.53614 12.2221 8.39484 12.2806 8.29065 12.3848C8.18646 12.489 8.12793 12.6303 8.12793 12.7777C8.12793 12.925 8.18646 13.0663 8.29065 13.1705C8.39484 13.2747 8.53614 13.3332 8.68349 13.3332H16.739L14.8613 15.2555C14.8031 15.3053 14.7559 15.3665 14.7225 15.4355C14.6892 15.5044 14.6704 15.5795 14.6675 15.656C14.6645 15.7325 14.6774 15.8088 14.7054 15.8801C14.7333 15.9514 14.7756 16.0161 14.8298 16.0703C14.8839 16.1244 14.9487 16.1668 15.02 16.1947C15.0913 16.2226 15.1676 16.2355 15.2441 16.2326C15.3206 16.2296 15.3957 16.2109 15.4646 16.1775C15.5335 16.1442 15.5948 16.0969 15.6446 16.0388L18.889 12.8166L15.6446 9.5999Z" fill="#FC5959"/>
</g>
<defs>
<clipPath id="clip0_729_723">
<rect width="20" height="20" fill="white"/>
</clipPath>
</defs>
</svg>
