<svg width="28" height="28" viewBox="0 0 28 28" fill="none" xmlns="http://www.w3.org/2000/svg">
<rect width="28" height="28" rx="2" fill="#002566"/>
<path d="M14.0005 7.6665C14.7846 7.66626 15.5481 7.91736 16.1789 8.38295C16.8098 8.84854 17.2748 9.50409 17.5057 10.2534C17.7366 11.0027 17.7212 11.8063 17.4618 12.5462C17.2024 13.2861 16.7127 13.9234 16.0645 14.3645C17.1896 14.7772 18.1654 15.5171 18.8664 16.4891C19.5674 17.4611 19.9615 18.6207 19.9978 19.8185C20.0012 19.885 19.9913 19.9515 19.9687 20.0141C19.946 20.0767 19.9111 20.1342 19.866 20.1831C19.8208 20.232 19.7663 20.2714 19.7058 20.299C19.6452 20.3266 19.5797 20.3419 19.5131 20.3438C19.4466 20.3458 19.3803 20.3344 19.3182 20.3104C19.2561 20.2864 19.1995 20.2503 19.1515 20.2041C19.1036 20.1579 19.0653 20.1026 19.0391 20.0414C19.0128 19.9802 18.999 19.9144 18.9985 19.8478C18.9588 18.5488 18.4148 17.3163 17.4819 16.4114C16.549 15.5066 15.3005 15.0006 14.0008 15.0006C12.7012 15.0006 11.4526 15.5066 10.5197 16.4114C9.5868 17.3163 9.04286 18.5488 9.00316 19.8478C8.99918 19.9804 8.94268 20.106 8.8461 20.197C8.74952 20.288 8.62076 20.3368 8.48815 20.3328C8.35555 20.3289 8.22995 20.2724 8.13899 20.1758C8.04804 20.0792 7.99918 19.9504 8.00315 19.8178C8.03965 18.6201 8.43375 17.4607 9.13473 16.4888C9.83571 15.517 10.8115 14.7771 11.9365 14.3645C11.2883 13.9234 10.7985 13.2861 10.5392 12.5462C10.2798 11.8063 10.2644 11.0027 10.4953 10.2534C10.7262 9.50409 11.1912 8.84854 11.8221 8.38295C12.4529 7.91736 13.2164 7.66626 14.0005 7.6665ZM11.3338 11.3332C11.3338 12.0404 11.6148 12.7187 12.1149 13.2188C12.615 13.7189 13.2932 13.9998 14.0005 13.9998C14.7077 13.9998 15.386 13.7189 15.8861 13.2188C16.3862 12.7187 16.6672 12.0404 16.6672 11.3332C16.6672 10.6259 16.3862 9.94765 15.8861 9.44755C15.386 8.94746 14.7077 8.6665 14.0005 8.6665C13.2932 8.6665 12.615 8.94746 12.1149 9.44755C11.6148 9.94765 11.3338 10.6259 11.3338 11.3332Z" fill="white"/>
</svg>
