<svg width="28" height="28" viewBox="0 0 28 28" fill="none" xmlns="http://www.w3.org/2000/svg">
    <path fill-rule="evenodd" clip-rule="evenodd"
        d="M9.65542 9.33276C9.65542 7.2015 11.3831 5.47378 13.5144 5.47378C15.6457 5.47378 17.3734 7.2015 17.3734 9.33276C17.3734 11.464 15.6457 13.1917 13.5144 13.1917C11.3831 13.1917 9.65542 11.464 9.65542 9.33276ZM13.5144 3.8584C10.491 3.8584 8.04004 6.30935 8.04004 9.33276C8.04004 12.3562 10.491 14.8071 13.5144 14.8071C16.5378 14.8071 18.9888 12.3562 18.9888 9.33276C18.9888 6.30935 16.5378 3.8584 13.5144 3.8584ZM8.45366 19.3169C9.17736 18.5932 10.1589 18.1867 11.1824 18.1867H15.849C16.8725 18.1867 17.854 18.5932 18.5777 19.3169C19.3014 20.0406 19.708 21.0222 19.708 22.0456V24.379C19.708 24.8251 20.0696 25.1867 20.5157 25.1867C20.9618 25.1867 21.3234 24.8251 21.3234 24.379V22.0456C21.3234 20.5938 20.7466 19.2013 19.72 18.1747C18.6933 17.1481 17.3009 16.5713 15.849 16.5713H11.1824C9.73048 16.5713 8.33805 17.1481 7.31141 18.1747C6.28477 19.2013 5.70801 20.5938 5.70801 22.0456V24.379C5.70801 24.8251 6.06962 25.1867 6.5157 25.1867C6.96178 25.1867 7.32339 24.8251 7.32339 24.379V22.0456C7.32339 21.0222 7.72996 20.0406 8.45366 19.3169Z"
        fill="#282828" />
</svg>