<svg width="100" height="100" viewBox="0 0 100 100" fill="none" xmlns="http://www.w3.org/2000/svg">
<rect width="100" height="100" fill="#002566"/>
<path d="M60.36 71.095L35.8843 36.2322H35.6632V59.9898C35.6632 61.8314 35.7185 63.2863 35.829 64.3545C35.9763 65.4227 36.2526 66.2514 36.6578 66.8408C37.0998 67.4301 37.6891 67.8168 38.4257 68.001C39.1992 68.1852 40.1938 68.2957 41.4093 68.3325V70.5425H25V68.3325C26.3628 68.2957 27.4494 68.1852 28.2598 68.001C29.1069 67.78 29.7515 67.3933 30.1935 66.8408C30.6723 66.2882 30.9854 65.5148 31.1328 64.5203C31.2801 63.4889 31.3538 62.1077 31.3538 60.3765V38.166C31.3538 36.619 31.2801 35.3483 31.1328 34.3538C30.9854 33.3224 30.7092 32.5121 30.304 31.9227C29.8988 31.3334 29.3095 30.9283 28.536 30.7073C27.7993 30.4494 26.8048 30.2837 25.5525 30.21V28H40.9672L63.233 59.9345H63.454V38.5527C63.454 36.7479 63.3803 35.3114 63.233 34.2433C63.1225 33.1383 62.8463 32.2911 62.4043 31.7018C61.9991 31.1124 61.4098 30.7257 60.6362 30.5415C59.8996 30.3573 58.9235 30.2468 57.708 30.21V28H74.1172V30.21C72.7544 30.2468 71.6494 30.3758 70.8022 30.5967C69.9919 30.7809 69.3473 31.1493 68.8685 31.7018C68.4265 32.2543 68.1318 33.0462 67.9845 34.0775C67.8372 35.1088 67.7635 36.4717 67.7635 38.166V71.095H60.36Z" fill="white"/>
</svg>
