<svg width="78" height="78" viewBox="0 0 78 78" fill="none" xmlns="http://www.w3.org/2000/svg">
<path d="M65.0995 20.213L52.912 8.02547C52.6855 7.79919 52.4166 7.61975 52.1207 7.49742C51.8248 7.37508 51.5077 7.31225 51.1875 7.3125H26.8125C25.5196 7.3125 24.2796 7.82612 23.3654 8.74035C22.4511 9.65459 21.9375 10.8946 21.9375 12.1875V17.0625H17.0625C15.7696 17.0625 14.5296 17.5761 13.6154 18.4904C12.7011 19.4046 12.1875 20.6446 12.1875 21.9375V65.8125C12.1875 67.1054 12.7011 68.3454 13.6154 69.2596C14.5296 70.1739 15.7696 70.6875 17.0625 70.6875H51.1875C52.4804 70.6875 53.7204 70.1739 54.6346 69.2596C55.5489 68.3454 56.0625 67.1054 56.0625 65.8125V60.9375H60.9375C62.2304 60.9375 63.4704 60.4239 64.3846 59.5096C65.2989 58.5954 65.8125 57.3554 65.8125 56.0625V21.9375C65.8128 21.6173 65.7499 21.3002 65.6276 21.0043C65.5052 20.7084 65.3258 20.4395 65.0995 20.213ZM41.4375 58.5H26.8125C26.166 58.5 25.546 58.2432 25.0889 57.7861C24.6318 57.329 24.375 56.709 24.375 56.0625C24.375 55.416 24.6318 54.796 25.0889 54.3389C25.546 53.8818 26.166 53.625 26.8125 53.625H41.4375C42.084 53.625 42.704 53.8818 43.1611 54.3389C43.6182 54.796 43.875 55.416 43.875 56.0625C43.875 56.709 43.6182 57.329 43.1611 57.7861C42.704 58.2432 42.084 58.5 41.4375 58.5ZM41.4375 48.75H26.8125C26.166 48.75 25.546 48.4932 25.0889 48.0361C24.6318 47.579 24.375 46.959 24.375 46.3125C24.375 45.666 24.6318 45.046 25.0889 44.5889C25.546 44.1318 26.166 43.875 26.8125 43.875H41.4375C42.084 43.875 42.704 44.1318 43.1611 44.5889C43.6182 45.046 43.875 45.666 43.875 46.3125C43.875 46.959 43.6182 47.579 43.1611 48.0361C42.704 48.4932 42.084 48.75 41.4375 48.75ZM60.9375 56.0625H56.0625V31.6875C56.0628 31.3673 55.9999 31.0502 55.8776 30.7543C55.7552 30.4584 55.5758 30.1895 55.3495 29.963L43.162 17.7755C42.9355 17.5492 42.6666 17.3698 42.3707 17.2474C42.0748 17.1251 41.7577 17.0622 41.4375 17.0625H26.8125V12.1875H50.179L60.9375 22.946V56.0625Z" fill="#192F5D"/>
</svg>
