<svg width="34" height="34" viewBox="0 0 34 34" fill="none" xmlns="http://www.w3.org/2000/svg">
<path opacity="0.2" d="M27.625 11.6875H20.1875V4.25L27.625 11.6875Z" fill="#002566"/>
<path d="M28.3767 10.9358L20.9392 3.49828C20.8405 3.39965 20.7233 3.32143 20.5943 3.26811C20.4653 3.21478 20.3271 3.18739 20.1875 3.1875H7.4375C6.87391 3.1875 6.33341 3.41138 5.9349 3.8099C5.53638 4.20841 5.3125 4.74892 5.3125 5.3125V28.6875C5.3125 29.2511 5.53638 29.7916 5.9349 30.1901C6.33341 30.5886 6.87391 30.8125 7.4375 30.8125H26.5625C27.1261 30.8125 27.6666 30.5886 28.0651 30.1901C28.4636 29.7916 28.6875 29.2511 28.6875 28.6875V11.6875C28.6876 11.5479 28.6602 11.4097 28.6069 11.2807C28.5536 11.1517 28.4754 11.0345 28.3767 10.9358ZM21.25 6.81461L25.0604 10.625H21.25V6.81461ZM26.5625 28.6875H7.4375V5.3125H19.125V11.6875C19.125 11.9693 19.2369 12.2395 19.4362 12.4388C19.6355 12.6381 19.9057 12.75 20.1875 12.75H26.5625V28.6875Z" fill="#002566"/>
</svg>
