<svg xmlns="http://www.w3.org/2000/svg" width="24" height="24" viewBox="0 0 24 24" fill="none">
<g clip-path="url(#clip0_516_474)">
<path d="M8.36006 0.789188C5.96209 1.62107 3.89408 3.2 2.4598 5.29407C1.02551 7.38813 0.300549 9.88696 0.391395 12.4235C0.48224 14.96 1.38411 17.4006 2.96452 19.3867C4.54494 21.3728 6.7206 22.7997 9.17194 23.4579C11.1593 23.9707 13.2415 23.9933 15.2394 23.5236C17.0494 23.117 18.7228 22.2474 20.0957 20.9998C21.5246 19.6617 22.5618 17.9595 23.0957 16.0761C23.6758 14.0279 23.7791 11.8741 23.3976 9.77981H12.2376V14.4092H18.7007C18.5715 15.1475 18.2947 15.8522 17.8868 16.4811C17.479 17.11 16.9484 17.6501 16.3269 18.0692C15.5378 18.5914 14.6481 18.9427 13.7151 19.1004C12.7793 19.2745 11.8195 19.2745 10.8838 19.1004C9.93535 18.9046 9.03814 18.5131 8.24944 17.9511C6.98222 17.054 6.03071 15.7797 5.53069 14.3098C5.02236 12.8124 5.02236 11.1891 5.53069 9.69169C5.88661 8.64209 6.475 7.68644 7.25194 6.89606C8.14105 5.97496 9.26669 5.31656 10.5054 4.99308C11.744 4.6696 13.0479 4.69356 14.2738 5.06231C15.2316 5.35617 16.1074 5.86983 16.8313 6.56231C17.5601 5.83731 18.2876 5.11044 19.0138 4.38169C19.3888 3.98981 19.7976 3.61669 20.1669 3.21544C19.0617 2.18704 17.7644 1.38676 16.3494 0.860438C13.7726 -0.0752057 10.9531 -0.10035 8.36006 0.789188Z" fill="white"/>
<path d="M8.36022 0.789367C10.9531 -0.100776 13.7726 -0.0762934 16.3496 0.858742C17.7648 1.38864 19.0615 2.19277 20.1652 3.22499C19.7902 3.62624 19.3946 4.00124 19.0121 4.39124C18.2846 5.11749 17.5577 5.84124 16.8315 6.56249C16.1075 5.87001 15.2317 5.35635 14.274 5.06249C13.0484 4.69244 11.7446 4.66711 10.5056 4.98926C9.26663 5.31141 8.1403 5.96861 7.25021 6.88874C6.47328 7.67912 5.88489 8.63477 5.52896 9.68437L1.64209 6.67499C3.03336 3.91604 5.44224 1.80566 8.36022 0.789367Z" fill="#E33629"/>
<path d="M0.611889 9.65654C0.820651 8.62111 1.1675 7.61841 1.64314 6.67529L5.53001 9.69217C5.02168 11.1896 5.02168 12.8129 5.53001 14.3103C4.23501 15.3103 2.93939 16.3153 1.64314 17.3253C0.452797 14.9559 0.0897629 12.2562 0.611889 9.65654Z" fill="#F8BD00"/>
<path d="M12.2381 9.77783H23.3981C23.7797 11.8721 23.6764 14.0259 23.0963 16.0741C22.5623 17.9575 21.5252 19.6597 20.0963 20.9978C18.8419 20.0191 17.5819 19.0478 16.3275 18.0691C16.9494 17.6496 17.4802 17.1089 17.8881 16.4793C18.296 15.8498 18.5726 15.1444 18.7013 14.4053H12.2381C12.2363 12.8641 12.2381 11.321 12.2381 9.77783Z" fill="#587DBD"/>
<path d="M1.64062 17.3243C2.93687 16.3243 4.2325 15.3193 5.5275 14.3093C6.02851 15.7797 6.98138 17.0541 8.25 17.9506C9.04116 18.51 9.9403 18.8983 10.89 19.0906C11.8257 19.2646 12.7855 19.2646 13.7213 19.0906C14.6543 18.9329 15.544 18.5816 16.3331 18.0593C17.5875 19.0381 18.8475 20.0093 20.1019 20.9881C18.7292 22.2363 17.0558 23.1066 15.2456 23.5137C13.2476 23.9834 11.1655 23.9609 9.17813 23.4481C7.60632 23.0284 6.13814 22.2886 4.86563 21.275C3.51886 20.2055 2.41882 18.8579 1.64062 17.3243Z" fill="#319F43"/>
</g>
<defs>
<clipPath id="clip0_516_474">
<rect width="24" height="24" fill="white"/>
</clipPath>
</defs>
</svg>