<svg width="28" height="28" viewBox="0 0 28 28" fill="none" xmlns="http://www.w3.org/2000/svg">
<path d="M26.9065 16.625C26.9065 16.799 26.8373 16.966 26.7143 17.089C26.5912 17.2121 26.4243 17.2812 26.2502 17.2812H24.2815V19.25C24.2815 19.424 24.2123 19.591 24.0893 19.714C23.9662 19.8371 23.7993 19.9062 23.6252 19.9062C23.4512 19.9062 23.2843 19.8371 23.1612 19.714C23.0381 19.591 22.969 19.424 22.969 19.25V17.2812H21.0002C20.8262 17.2812 20.6593 17.2121 20.5362 17.089C20.4131 16.966 20.344 16.799 20.344 16.625C20.344 16.451 20.4131 16.284 20.5362 16.161C20.6593 16.0379 20.8262 15.9688 21.0002 15.9688H22.969V14C22.969 13.826 23.0381 13.659 23.1612 13.536C23.2843 13.4129 23.4512 13.3438 23.6252 13.3438C23.7993 13.3438 23.9662 13.4129 24.0893 13.536C24.2123 13.659 24.2815 13.826 24.2815 14V15.9688H26.2502C26.4243 15.9688 26.5912 16.0379 26.7143 16.161C26.8373 16.284 26.9065 16.451 26.9065 16.625ZM6.12523 7.65625H8.09398V9.625C8.09398 9.79905 8.16312 9.96597 8.28619 10.089C8.40926 10.2121 8.57618 10.2813 8.75023 10.2813C8.92428 10.2813 9.0912 10.2121 9.21427 10.089C9.33734 9.96597 9.40648 9.79905 9.40648 9.625V7.65625H11.3752C11.5493 7.65625 11.7162 7.58711 11.8393 7.46404C11.9623 7.34097 12.0315 7.17405 12.0315 7C12.0315 6.82595 11.9623 6.65903 11.8393 6.53596C11.7162 6.41289 11.5493 6.34375 11.3752 6.34375H9.40648V4.375C9.40648 4.20095 9.33734 4.03403 9.21427 3.91096C9.0912 3.78789 8.92428 3.71875 8.75023 3.71875C8.57618 3.71875 8.40926 3.78789 8.28619 3.91096C8.16312 4.03403 8.09398 4.20095 8.09398 4.375V6.34375H6.12523C5.95118 6.34375 5.78426 6.41289 5.66119 6.53596C5.53812 6.65903 5.46898 6.82595 5.46898 7C5.46898 7.17405 5.53812 7.34097 5.66119 7.46404C5.78426 7.58711 5.95118 7.65625 6.12523 7.65625ZM20.1252 21.2188H19.0315V20.125C19.0315 19.951 18.9623 19.784 18.8393 19.661C18.7162 19.5379 18.5493 19.4688 18.3752 19.4688C18.2012 19.4688 18.0343 19.5379 17.9112 19.661C17.7881 19.784 17.719 19.951 17.719 20.125V21.2188H16.6252C16.4512 21.2188 16.2843 21.2879 16.1612 21.411C16.0381 21.534 15.969 21.701 15.969 21.875C15.969 22.049 16.0381 22.216 16.1612 22.339C16.2843 22.4621 16.4512 22.5312 16.6252 22.5312H17.719V23.625C17.719 23.799 17.7881 23.966 17.9112 24.089C18.0343 24.2121 18.2012 24.2812 18.3752 24.2812C18.5493 24.2812 18.7162 24.2121 18.8393 24.089C18.9623 23.966 19.0315 23.799 19.0315 23.625V22.5312H20.1252C20.2993 22.5312 20.4662 22.4621 20.5893 22.339C20.7123 22.216 20.7815 22.049 20.7815 21.875C20.7815 21.701 20.7123 21.534 20.5893 21.411C20.4662 21.2879 20.2993 21.2188 20.1252 21.2188ZM23.833 8.59578L8.59492 23.8328C8.45272 23.975 8.28391 24.0878 8.09812 24.1648C7.91233 24.2417 7.7132 24.2814 7.5121 24.2814C7.311 24.2814 7.11187 24.2417 6.92608 24.1648C6.74029 24.0878 6.57148 23.975 6.42929 23.8328L4.16632 21.5698C4.02412 21.4277 3.91131 21.2588 3.83435 21.0731C3.75739 20.8873 3.71777 20.6881 3.71777 20.487C3.71777 20.2859 3.75739 20.0868 3.83435 19.901C3.91131 19.7152 4.02412 19.5464 4.16632 19.4042L19.4044 4.16719C19.5466 4.02498 19.7154 3.91218 19.9012 3.83521C20.087 3.75825 20.2862 3.71864 20.4873 3.71864C20.6884 3.71864 20.8875 3.75825 21.0733 3.83521C21.2591 3.91218 21.4279 4.02498 21.5701 4.16719L23.833 6.43016C23.9752 6.57235 24.0881 6.74116 24.165 6.92695C24.242 7.11274 24.2816 7.31187 24.2816 7.51297C24.2816 7.71407 24.242 7.9132 24.165 8.09899C24.0881 8.28478 23.9752 8.45359 23.833 8.59578ZM18.3216 12.25L15.7502 9.67859L5.09492 20.3328C5.07458 20.3531 5.05844 20.3773 5.04743 20.4038C5.03642 20.4304 5.03076 20.4588 5.03076 20.4876C5.03076 20.5163 5.03642 20.5448 5.04743 20.5713C5.05844 20.5979 5.07458 20.622 5.09492 20.6423L7.35788 22.9042C7.39887 22.945 7.45431 22.9678 7.5121 22.9678C7.56989 22.9678 7.62534 22.945 7.66632 22.9042L18.3216 12.25ZM22.9044 7.35766L20.6426 5.09578C20.6223 5.07544 20.5981 5.05931 20.5716 5.0483C20.545 5.03729 20.5166 5.03162 20.4878 5.03162C20.4591 5.03162 20.4306 5.03729 20.404 5.0483C20.3775 5.05931 20.3534 5.07544 20.333 5.09578L16.6777 8.75L19.2502 11.3225L22.9044 7.66719C22.9248 7.64687 22.9409 7.62275 22.9519 7.59619C22.9629 7.56963 22.9686 7.54117 22.9686 7.51242C22.9686 7.48367 22.9629 7.45521 22.9519 7.42865C22.9409 7.4021 22.9248 7.37797 22.9044 7.35766Z" fill="#232931"/>
</svg>
