<svg width="30" height="30" viewBox="0 0 30 30" fill="none" xmlns="http://www.w3.org/2000/svg">
<path d="M6.25 17.5C6.25 17.8315 6.3817 18.1495 6.61612 18.3839C6.85054 18.6183 7.16848 18.75 7.5 18.75C7.83152 18.75 8.14946 18.6183 8.38388 18.3839C8.6183 18.1495 8.75 17.8315 8.75 17.5C8.75 17.1685 8.6183 16.8505 8.38388 16.6161C8.14946 16.3817 7.83152 16.25 7.5 16.25C7.16848 16.25 6.85054 16.3817 6.61612 16.6161C6.3817 16.8505 6.25 17.1685 6.25 17.5ZM13.75 15C13.75 15.3315 13.8817 15.6495 14.1161 15.8839C14.3505 16.1183 14.6685 16.25 15 16.25C15.3315 16.25 15.6495 16.1183 15.8839 15.8839C16.1183 15.6495 16.25 15.3315 16.25 15C16.25 14.6685 16.1183 14.3505 15.8839 14.1161C15.6495 13.8817 15.3315 13.75 15 13.75C14.6685 13.75 14.3505 13.8817 14.1161 14.1161C13.8817 14.3505 13.75 14.6685 13.75 15ZM21.25 12.5C21.25 12.8315 21.3817 13.1495 21.6161 13.3839C21.8505 13.6183 22.1685 13.75 22.5 13.75C22.8315 13.75 23.1495 13.6183 23.3839 13.3839C23.6183 13.1495 23.75 12.8315 23.75 12.5C23.75 12.1685 23.6183 11.8505 23.3839 11.6161C23.1495 11.3817 22.8315 11.25 22.5 11.25C22.1685 11.25 21.8505 11.3817 21.6161 11.6161C21.3817 11.8505 21.25 12.1685 21.25 12.5Z" stroke="#9AA8B8" stroke-width="2" stroke-linecap="round" stroke-linejoin="round"/>
</svg>
