<svg width="16" height="16" viewBox="0 0 16 16" fill="none" xmlns="http://www.w3.org/2000/svg">
<path d="M8.00049 1.6665C8.78455 1.66626 9.54805 1.91736 10.1789 2.38295C10.8098 2.84854 11.2748 3.50409 11.5057 4.25339C11.7366 5.00268 11.7212 5.80626 11.4618 6.54618C11.2024 7.2861 10.7127 7.92339 10.0645 8.3645C11.1896 8.77717 12.1654 9.51712 12.8664 10.4891C13.5674 11.4611 13.9615 12.6207 13.9978 13.8185C14.0012 13.885 13.9913 13.9515 13.9687 14.0141C13.946 14.0767 13.9111 14.1342 13.866 14.1831C13.8208 14.232 13.7663 14.2714 13.7058 14.299C13.6452 14.3266 13.5797 14.3419 13.5131 14.3438C13.4466 14.3458 13.3803 14.3344 13.3182 14.3104C13.2561 14.2864 13.1995 14.2503 13.1515 14.2041C13.1036 14.1579 13.0653 14.1026 13.0391 14.0414C13.0128 13.9802 12.999 13.9144 12.9985 13.8478C12.9588 12.5488 12.4148 11.3163 11.4819 10.4114C10.549 9.50661 9.30046 9.00057 8.00082 9.00057C6.70119 9.00057 5.45262 9.50661 4.51971 10.4114C3.5868 11.3163 3.04286 12.5488 3.00316 13.8478C2.99918 13.9804 2.94268 14.106 2.8461 14.197C2.74952 14.288 2.62076 14.3368 2.48815 14.3328C2.35555 14.3289 2.22995 14.2724 2.13899 14.1758C2.04804 14.0792 1.99918 13.9504 2.00315 13.8178C2.03965 12.6201 2.43375 11.4607 3.13473 10.4888C3.83571 9.51698 4.81149 8.77713 5.93649 8.3645C5.28828 7.92339 4.79854 7.2861 4.53916 6.54618C4.27977 5.80626 4.2644 5.00268 4.4953 4.25339C4.72619 3.50409 5.1912 2.84854 5.82206 2.38295C6.45293 1.91736 7.21642 1.66626 8.00049 1.6665ZM5.33382 5.33317C5.33382 6.04041 5.61477 6.71869 6.11487 7.21879C6.61497 7.71889 7.29324 7.99984 8.00049 7.99984C8.70773 7.99984 9.38601 7.71889 9.88611 7.21879C10.3862 6.71869 10.6672 6.04041 10.6672 5.33317C10.6672 4.62593 10.3862 3.94765 9.88611 3.44755C9.38601 2.94746 8.70773 2.6665 8.00049 2.6665C7.29324 2.6665 6.61497 2.94746 6.11487 3.44755C5.61477 3.94765 5.33382 4.62593 5.33382 5.33317Z" fill="white"/>
</svg>
