<svg width="22" height="22" viewBox="0 0 22 22" fill="none" xmlns="http://www.w3.org/2000/svg">
<circle cx="11" cy="11" r="10.3125" stroke="#F4F8FC" stroke-width="1.375"/>
<path d="M15.125 11.6875H11.6875V15.125C11.6875 15.5031 11.3781 15.8125 11 15.8125C10.6219 15.8125 10.3125 15.5031 10.3125 15.125V11.6875H6.875C6.49687 11.6875 6.1875 11.3781 6.1875 11C6.1875 10.6219 6.49687 10.3125 6.875 10.3125H10.3125V6.875C10.3125 6.49687 10.6219 6.1875 11 6.1875C11.3781 6.1875 11.6875 6.49687 11.6875 6.875V10.3125H15.125C15.5031 10.3125 15.8125 10.6219 15.8125 11C15.8125 11.3781 15.5031 11.6875 15.125 11.6875Z" fill="#F4F8FC"/>
</svg>
